<svg width="64" height="11" viewBox="0 0 64 11" fill="none" xmlns="http://www.w3.org/2000/svg">
<path d="M5.03573 10.168C4.45706 10.168 3.91573 10.0653 3.41173 9.86C2.90773 9.65467 2.46906 9.35133 2.09573 8.95C1.73173 8.54867 1.44239 8.054 1.22773 7.466C1.01306 6.878 0.905727 6.206 0.905727 5.45C0.905727 4.70333 1.01306 4.036 1.22773 3.448C1.45173 2.85067 1.75039 2.34667 2.12373 1.936C2.50639 1.52533 2.94973 1.21267 3.45373 0.998C3.96706 0.783333 4.51306 0.676 5.09173 0.676C5.67039 0.676 6.18373 0.792666 6.63173 1.026C7.07973 1.25933 7.44839 1.53 7.73773 1.838L6.86973 2.888C6.62706 2.64533 6.36573 2.454 6.08573 2.314C5.80573 2.16467 5.48839 2.09 5.13373 2.09C4.76039 2.09 4.41506 2.16933 4.09773 2.328C3.78973 2.47733 3.51906 2.69667 3.28573 2.986C3.06173 3.266 2.88439 3.61133 2.75373 4.022C2.63239 4.43267 2.57173 4.89467 2.57173 5.408C2.57173 6.45333 2.79573 7.27467 3.24373 7.872C3.70106 8.46 4.31706 8.754 5.09173 8.754C5.50239 8.754 5.86639 8.67 6.18373 8.502C6.50106 8.32467 6.79039 8.096 7.05173 7.816L7.91973 8.838C7.54639 9.26733 7.11706 9.59867 6.63173 9.832C6.15573 10.056 5.62373 10.168 5.03573 10.168ZM12.1221 10.168C11.6928 10.168 11.2821 10.0887 10.8901 9.93C10.4981 9.77133 10.1481 9.538 9.84013 9.23C9.54147 8.922 9.30347 8.544 9.12613 8.096C8.9488 7.648 8.86013 7.13933 8.86013 6.57C8.86013 6.00067 8.9488 5.492 9.12613 5.044C9.30347 4.596 9.54147 4.218 9.84013 3.91C10.1481 3.602 10.4981 3.36867 10.8901 3.21C11.2821 3.042 11.6928 2.958 12.1221 2.958C12.5515 2.958 12.9621 3.042 13.3541 3.21C13.7555 3.36867 14.1055 3.602 14.4041 3.91C14.7028 4.218 14.9408 4.596 15.1181 5.044C15.3048 5.492 15.3981 6.00067 15.3981 6.57C15.3981 7.13933 15.3048 7.648 15.1181 8.096C14.9408 8.544 14.7028 8.922 14.4041 9.23C14.1055 9.538 13.7555 9.77133 13.3541 9.93C12.9621 10.0887 12.5515 10.168 12.1221 10.168ZM12.1221 8.852C12.6261 8.852 13.0228 8.64667 13.3121 8.236C13.6015 7.816 13.7461 7.26067 13.7461 6.57C13.7461 5.87 13.6015 5.31467 13.3121 4.904C13.0228 4.484 12.6261 4.274 12.1221 4.274C11.6181 4.274 11.2215 4.484 10.9321 4.904C10.6521 5.31467 10.5121 5.87 10.5121 6.57C10.5121 7.26067 10.6521 7.816 10.9321 8.236C11.2215 8.64667 11.6181 8.852 12.1221 8.852ZM16.9917 10V3.126H18.3217L18.4337 4.05H18.4897C18.7977 3.75133 19.1291 3.49467 19.4837 3.28C19.8477 3.06533 20.2677 2.958 20.7437 2.958C21.4811 2.958 22.0177 3.196 22.3537 3.672C22.6897 4.13867 22.8577 4.81067 22.8577 5.688V10H21.2477V5.898C21.2477 5.32867 21.1637 4.92733 20.9957 4.694C20.8277 4.46067 20.5524 4.344 20.1697 4.344C19.8711 4.344 19.6051 4.41867 19.3717 4.568C19.1477 4.708 18.8911 4.918 18.6017 5.198V10H16.9917ZM27.2477 10.168C26.8464 10.168 26.5057 10.1073 26.2257 9.986C25.955 9.86467 25.731 9.69667 25.5537 9.482C25.3857 9.258 25.2597 8.99667 25.1757 8.698C25.101 8.39 25.0637 8.04933 25.0637 7.676V4.4H24.0837V3.196L25.1477 3.126L25.3437 1.25H26.6877V3.126H28.4377V4.4H26.6877V7.676C26.6877 8.47867 27.0097 8.88 27.6537 8.88C27.775 8.88 27.8964 8.866 28.0177 8.838C28.1484 8.81 28.265 8.77267 28.3677 8.726L28.6477 9.916C28.461 9.98133 28.2464 10.0373 28.0037 10.084C27.7704 10.14 27.5184 10.168 27.2477 10.168ZM31.2495 10.168C30.6429 10.168 30.1529 9.986 29.7795 9.622C29.4062 9.24867 29.2195 8.75867 29.2195 8.152C29.2195 7.788 29.2942 7.466 29.4435 7.186C29.6022 6.89667 29.8449 6.64933 30.1715 6.444C30.5075 6.23867 30.9275 6.066 31.4315 5.926C31.9449 5.786 32.5562 5.67867 33.2655 5.604C33.2562 5.42667 33.2282 5.25867 33.1815 5.1C33.1442 4.932 33.0742 4.78733 32.9715 4.666C32.8782 4.53533 32.7522 4.43733 32.5935 4.372C32.4349 4.29733 32.2389 4.26 32.0055 4.26C31.6695 4.26 31.3382 4.32533 31.0115 4.456C30.6942 4.58667 30.3815 4.74533 30.0735 4.932L29.4855 3.854C29.8682 3.61133 30.2975 3.40133 30.7735 3.224C31.2495 3.04667 31.7629 2.958 32.3135 2.958C33.1722 2.958 33.8115 3.21467 34.2315 3.728C34.6609 4.232 34.8755 4.96467 34.8755 5.926V10H33.5455L33.4335 9.244H33.3775C33.0695 9.50533 32.7382 9.72467 32.3835 9.902C32.0382 10.0793 31.6602 10.168 31.2495 10.168ZM31.7675 8.908C32.0475 8.908 32.2995 8.84267 32.5235 8.712C32.7569 8.58133 33.0042 8.39467 33.2655 8.152V6.612C32.7989 6.668 32.4069 6.74267 32.0895 6.836C31.7722 6.92933 31.5155 7.03667 31.3195 7.158C31.1235 7.27 30.9835 7.40067 30.8995 7.55C30.8155 7.69933 30.7735 7.858 30.7735 8.026C30.7735 8.334 30.8669 8.558 31.0535 8.698C31.2402 8.838 31.4782 8.908 31.7675 8.908ZM39.6723 10.168C39.2056 10.168 38.7669 10.0887 38.3563 9.93C37.9549 9.77133 37.6049 9.538 37.3063 9.23C37.0076 8.922 36.7743 8.544 36.6063 8.096C36.4383 7.648 36.3543 7.13933 36.3543 6.57C36.3543 6.00067 36.4476 5.492 36.6343 5.044C36.8209 4.596 37.0729 4.218 37.3903 3.91C37.7076 3.602 38.0716 3.36867 38.4823 3.21C38.9023 3.042 39.3409 2.958 39.7983 2.958C40.2463 2.958 40.6289 3.03267 40.9463 3.182C41.2729 3.33133 41.5623 3.51333 41.8143 3.728L41.0303 4.778C40.8436 4.61933 40.6569 4.498 40.4703 4.414C40.2929 4.32067 40.0969 4.274 39.8823 4.274C39.3223 4.274 38.8696 4.484 38.5243 4.904C38.1789 5.31467 38.0063 5.87 38.0063 6.57C38.0063 7.26067 38.1743 7.816 38.5103 8.236C38.8556 8.64667 39.2989 8.852 39.8403 8.852C40.1109 8.852 40.3629 8.796 40.5963 8.684C40.8389 8.56267 41.0583 8.42267 41.2543 8.264L41.9123 9.328C41.5856 9.608 41.2263 9.818 40.8343 9.958C40.4516 10.098 40.0643 10.168 39.6723 10.168ZM45.5544 10.168C45.153 10.168 44.8124 10.1073 44.5324 9.986C44.2617 9.86467 44.0377 9.69667 43.8604 9.482C43.6924 9.258 43.5664 8.99667 43.4824 8.698C43.4077 8.39 43.3704 8.04933 43.3704 7.676V4.4H42.3904V3.196L43.4544 3.126L43.6504 1.25H44.9944V3.126H46.7444V4.4H44.9944V7.676C44.9944 8.47867 45.3164 8.88 45.9604 8.88C46.0817 8.88 46.203 8.866 46.3244 8.838C46.455 8.81 46.5717 8.77267 46.6744 8.726L46.9544 9.916C46.7677 9.98133 46.553 10.0373 46.3104 10.084C46.077 10.14 45.825 10.168 45.5544 10.168ZM53.0377 10.168C52.3003 10.168 51.7637 9.93467 51.4277 9.468C51.0917 8.992 50.9237 8.31533 50.9237 7.438V3.126H52.5337V7.228C52.5337 7.79733 52.6177 8.19867 52.7857 8.432C52.9537 8.66533 53.2243 8.782 53.5977 8.782C53.8963 8.782 54.1577 8.70733 54.3817 8.558C54.615 8.40867 54.8623 8.166 55.1237 7.83V3.126H56.7337V10H55.4177L55.2917 8.992H55.2497C54.951 9.34667 54.6243 9.63133 54.2697 9.846C53.9243 10.0607 53.5137 10.168 53.0377 10.168ZM60.691 10.168C60.215 10.168 59.7436 10.0793 59.277 9.902C58.8196 9.71533 58.423 9.48667 58.087 9.216L58.843 8.18C59.151 8.42267 59.4543 8.614 59.753 8.754C60.061 8.88467 60.3923 8.95 60.747 8.95C61.1203 8.95 61.3956 8.87533 61.573 8.726C61.7503 8.56733 61.839 8.36667 61.839 8.124C61.839 7.984 61.797 7.86267 61.713 7.76C61.629 7.648 61.517 7.55 61.377 7.466C61.237 7.382 61.0783 7.30733 60.901 7.242C60.7236 7.16733 60.5463 7.09267 60.369 7.018C60.145 6.934 59.9163 6.836 59.683 6.724C59.4496 6.612 59.2396 6.47667 59.053 6.318C58.8756 6.15933 58.7263 5.97733 58.605 5.772C58.493 5.55733 58.437 5.30533 58.437 5.016C58.437 4.40933 58.661 3.91467 59.109 3.532C59.557 3.14933 60.1683 2.958 60.943 2.958C61.419 2.958 61.8483 3.042 62.231 3.21C62.6136 3.378 62.945 3.56933 63.225 3.784L62.483 4.764C62.2403 4.58667 61.993 4.44667 61.741 4.344C61.4983 4.232 61.2416 4.176 60.971 4.176C60.6256 4.176 60.369 4.25067 60.201 4.4C60.0423 4.54 59.963 4.71733 59.963 4.932C59.963 5.072 60.0003 5.19333 60.075 5.296C60.159 5.38933 60.2663 5.47333 60.397 5.548C60.5276 5.62267 60.677 5.69267 60.845 5.758C61.0223 5.82333 61.2043 5.88867 61.391 5.954C61.6243 6.038 61.8576 6.136 62.091 6.248C62.3243 6.35067 62.5343 6.48133 62.721 6.64C62.917 6.79867 63.071 6.99467 63.183 7.228C63.3043 7.452 63.365 7.72267 63.365 8.04C63.365 8.33867 63.3043 8.61867 63.183 8.88C63.071 9.132 62.903 9.356 62.679 9.552C62.455 9.73867 62.175 9.888 61.839 10C61.503 10.112 61.1203 10.168 60.691 10.168Z" fill="white"/>
</svg>
