<svg width="512" height="512" viewBox="0 0 512 512" fill="none" xmlns="http://www.w3.org/2000/svg">
<rect width="512" height="512" fill="white"/>
<path d="M62.0588 286L46 241H55.8824L67 273.708L78.1176 241H88L71.9412 286H62.0588Z" fill="black"/>
<path d="M114.784 287C110.683 287 106.583 286.169 102.892 284.09C99.6119 282.219 96.7414 279.31 94.8962 275.984C92.8459 272.243 92.0257 268.086 92.0257 263.929C91.8207 259.564 92.8459 255.199 94.8962 251.25C96.7414 247.717 99.4068 245.014 102.687 242.936C106.173 240.857 110.068 239.818 114.169 240.026C118.27 239.818 122.37 241.065 125.856 243.352C129.136 245.638 131.597 248.756 133.032 252.497C134.672 257.07 135.287 261.85 134.877 266.423H125.036V262.682C125.241 258.94 124.42 255.199 122.575 251.874C120.73 249.587 117.654 248.34 114.784 248.548C111.299 248.34 108.018 249.795 105.763 252.289C103.507 255.615 102.482 259.564 102.892 263.305C102.687 267.046 103.712 270.788 105.763 273.906C107.813 276.4 111.094 277.855 114.374 277.647C116.629 277.647 118.68 277.231 120.73 275.984C122.575 274.945 124.01 273.282 124.831 271.203L134.672 274.113C133.032 278.062 130.366 281.388 126.881 283.467C123.19 285.753 119.09 287 114.784 287ZM99.6119 266.007V258.525H130.161V266.007H99.6119Z" fill="black"/>
<path d="M139 249.3V241.429H171V249.3H139ZM171 286.171C168.033 286.793 165.066 287 162.099 287C159.344 287 156.801 286.379 154.258 285.343C151.927 284.514 150.232 282.857 148.96 280.786C147.901 278.921 147.477 276.85 147.477 274.779C147.477 272.707 147.477 270.429 147.477 267.943V229H157.649V267.321C157.649 269.186 157.649 270.636 157.649 272.086C157.649 273.329 157.861 274.364 158.497 275.4C159.556 277.057 161.464 278.093 163.371 278.093C165.914 278.3 168.457 278.093 171 277.679V286.171Z" fill="black"/>
<path d="M180 286V241.497H188.74V252.417L187.724 250.975C188.333 249.533 188.943 248.09 189.959 246.854C190.772 245.618 191.992 244.588 193.211 243.764C194.228 242.94 195.447 242.322 196.87 241.909C198.089 241.497 199.512 241.291 200.935 241.085C202.358 240.879 203.577 241.085 205 241.291V250.563C203.577 250.151 201.951 249.945 200.528 250.151C198.902 250.357 197.276 250.769 196.057 251.593C194.837 252.211 193.618 253.241 192.805 254.477C191.992 255.714 191.382 256.95 190.976 258.392C190.569 260.04 190.366 261.482 190.366 263.131V285.794L180 286Z" fill="black"/>
<path d="M214 234.16V225H224V234.16H214ZM214 286V241.031H224V286H214Z" fill="black"/>
<path d="M236 286V241.281H244.904V255.152H246.146V286H236ZM267.061 286V264.469C267.061 262.813 266.854 261.363 266.854 259.707C266.646 258.051 266.232 256.395 265.404 254.738C264.783 253.082 263.54 251.84 262.298 250.805C260.641 249.77 258.571 249.149 256.707 249.356C255.465 249.356 254.222 249.563 252.98 249.977C251.737 250.391 250.495 251.012 249.667 252.047C248.631 253.289 247.803 254.738 247.182 256.188C246.561 258.465 246.146 260.535 246.354 262.813L240.141 260.328C240.141 256.809 240.763 253.289 242.419 249.977C243.869 247.078 246.146 244.387 248.838 242.731C251.944 240.867 255.672 239.832 259.399 240.039C262.298 239.832 264.99 240.453 267.682 241.695C269.753 242.731 271.409 244.18 272.859 245.836C274.101 247.492 274.929 249.356 275.551 251.426C276.172 253.289 276.586 255.152 276.793 256.809C277 258.465 277 259.914 277 260.949V286H267.061Z" fill="black"/>
<path d="M300.779 287C297.905 287 295.032 286.374 292.568 285.123C290.516 284.08 288.668 282.202 287.642 280.116C286.411 278.03 286 275.736 286 273.233C286 271.147 286.411 269.269 287.026 267.392C287.847 265.723 288.874 264.054 290.311 262.803C291.953 261.342 294.005 260.299 296.058 259.674C298.111 259.048 300.163 258.422 302.216 258.005C304.679 257.588 307.142 257.17 310.016 256.753C312.889 256.336 315.763 255.919 318.842 255.502L315.353 257.588C315.558 255.084 314.942 252.581 313.3 250.704C311.247 249.035 308.784 248.201 306.321 248.409C304.268 248.409 302.421 248.827 300.574 249.87C298.726 250.913 297.289 252.581 296.674 254.667L287.642 251.747C288.668 247.992 290.721 244.863 293.8 242.569C297.495 240.065 301.805 238.814 306.321 239.022C309.811 239.022 313.505 239.648 316.789 240.9C319.663 242.151 322.126 244.446 323.358 247.366C324.179 248.827 324.589 250.495 324.795 252.164C325 254.041 325 255.71 325 257.588V285.123H316.379V275.319L317.816 276.987C316.174 279.908 313.711 282.411 310.837 284.08C307.553 286.374 304.063 287 300.779 287ZM302.832 279.073C304.884 279.073 306.732 278.656 308.579 277.822C310.016 277.196 311.247 276.153 312.479 274.901C313.3 273.858 313.916 272.815 314.326 271.564C314.942 270.104 315.147 268.643 315.147 267.183C315.147 265.514 315.147 264.263 315.147 263.22L318.226 264.054L310.632 265.306C308.579 265.723 306.732 265.932 305.089 266.349C303.653 266.557 302.421 266.975 300.984 267.392C299.958 267.809 298.932 268.226 298.111 268.852C297.289 269.269 296.674 270.104 296.263 270.729C295.853 271.564 295.647 272.398 295.647 273.233C295.647 274.276 295.853 275.319 296.468 276.153C297.084 276.987 297.905 277.822 298.932 278.239C299.958 278.865 301.395 279.073 302.832 279.073Z" fill="black"/>
<path d="M336 286V225H346V286H336Z" fill="#21B8F9"/>
<path d="M360 234.16V225H370V234.16H360ZM360 286V241.031H370V286H360Z" fill="#21B8F9"/>
<path d="M394.059 286L378 241H387.882L399 273.708L410.118 241H420L403.941 286H394.059Z" fill="#21B8F9"/>
<path d="M446.314 287C442.118 287 437.922 286.169 434.146 284.09C430.789 282.219 427.852 279.31 425.964 275.984C423.866 272.243 423.026 268.086 423.026 263.929C422.817 259.564 423.866 255.199 425.964 251.25C427.852 247.717 430.579 244.807 433.936 242.936C437.502 240.857 441.489 239.818 445.685 240.026C449.88 239.818 454.076 240.857 457.643 243.144C461 245.43 463.517 248.548 464.986 252.289C466.664 256.862 467.294 261.642 466.874 266.215H456.804V262.474C456.804 257.693 455.965 253.952 454.286 251.874C452.398 249.587 449.251 248.34 446.314 248.548C442.747 248.34 439.391 249.795 437.083 252.289C434.775 255.615 433.726 259.564 434.146 263.305C433.936 267.046 434.985 270.788 437.083 273.906C439.181 276.4 442.538 277.855 445.894 277.647C448.202 277.647 450.3 277.231 452.398 275.984C454.286 274.945 455.755 273.282 456.594 271.203L466.664 274.113C464.986 278.062 462.259 281.388 458.692 283.467C454.916 285.961 450.72 287 446.314 287ZM430.789 266.007V258.525H462.049V266.007H430.789Z" fill="#21B8F9"/>
</svg>

